<?xml version="1.0" encoding="UTF-8"?>
<!DOCTYPE svg PUBLIC "-//W3C//DTD SVG 1.1//EN" "http://www.w3.org/Graphics/SVG/1.1/DTD/svg11.dtd">
<!-- Creator: CorelDRAW 2020 (64-Bit) -->
<svg xmlns="http://www.w3.org/2000/svg" xml:space="preserve" width="512px" height="512px" version="1.1" style="shape-rendering:geometricPrecision; text-rendering:geometricPrecision; image-rendering:optimizeQuality; fill-rule:evenodd; clip-rule:evenodd"
viewBox="0 0 20 20"
 xmlns:xlink="http://www.w3.org/1999/xlink"
 xmlns:xodm="http://www.corel.com/coreldraw/odm/2003">
 <defs>
  <style type="text/css">
   <![CDATA[
    .fil4 {fill:#FEFEFE}
    .fil3 {fill:#002D67}
    .fil1 {fill:#004095}
    .fil0 {fill:#0050C4}
    .fil2 {fill:#FEFEFE}
   ]]>
  </style>
 </defs>
 <g id="Layer_x0020_1">
  <metadata id="CorelCorpID_0Corel-Layer"/>
  <g transform="translate(1.235, 3.535)" id="_2594929327488">
   <path class="fil0" d="M4.92 9.9c0.08,-0.02 0.16,-0.06 0.24,-0.09 1.03,-0.39 2.05,-0.87 3.03,-1.38 0.03,-0.02 0.17,-0.08 0.2,-0.11l-0.02 -0.01c0,-0.12 0.01,-0.24 0.01,-0.36 0,-0.17 -0.01,-1.04 0,-1.12 -0.24,0 -0.47,-0.02 -0.71,-0.02 -0.18,0 -0.61,-0.05 -0.69,-0.03l0.28 1 -0.27 0c0.08,0.12 0.79,0.15 0.99,0.16 -0.01,0.03 -0.51,0.33 -0.58,0.37 -0.09,0.06 -0.08,0.05 -0.2,0.05l-1.75 -0.01c-0.03,0 -0.02,-0.01 -0.03,0 -0.03,0 -0.07,0 -0.11,0 -0.19,0 -0.59,0.01 -0.73,0 -0.06,-0.15 -0.03,-0.72 -0.03,-0.94 0,-0.32 0,-0.65 0,-0.98 0,-0.31 0.05,-0.48 0.27,-0.7 0.04,-0.04 0.08,-0.07 0.14,-0.11l0.14 -0.1c0.1,-0.06 0.29,-0.14 0.32,-0.18 -0.05,-0.08 -0.16,-0.09 -0.23,-0.09 -0.18,0 -0.34,0.03 -0.48,-0.17 -0.01,-0.02 -0.05,-0.09 -0.05,-0.11 -0.02,-0.05 0,-0.08 0.04,-0.1 0.07,-0.05 0.48,-0.06 0.6,-0.06 0.08,0.01 0.12,0.09 0.15,0.17 0.04,0.08 0.08,0.14 0.16,0.17 0.06,-0.04 0.51,-0.63 0.63,-0.74 0.08,-0.09 0.07,-0.11 0.23,-0.23 0.13,-0.1 0.21,-0.16 0.41,-0.2 0.37,-0.07 2.04,-0.04 2.42,-0.04 -0.06,-0.02 -0.79,-0.02 -0.92,-0.02l0 -3.43c-0.03,0.01 -0.23,0.22 -0.26,0.25l-0.2 0.18c-0.37,0.32 -0.86,0.66 -1.27,0.89 -0.06,0.03 -0.11,0.06 -0.17,0.1 -0.32,0.19 -1.24,0.6 -1.58,0.71 -0.07,0.03 -0.12,0.04 -0.19,0.07 -0.02,0.01 -0.07,0.02 -0.1,0.03 -0.03,0.01 -0.06,0.02 -0.1,0.03 -0.42,0.13 -0.81,0.22 -1.25,0.28 -0.17,0.02 -0.32,0.02 -0.49,0.02 -0.07,0.49 -0.1,1.11 -0.03,1.6 0.03,0.17 0.06,0.33 0.09,0.49 0.03,0.16 0.06,0.32 0.1,0.47 0.07,0.26 0.18,0.64 0.27,0.88l0.16 0.42c0.06,0.15 0.27,0.64 0.35,0.79 0.03,0.07 0.07,0.13 0.09,0.19 0.07,0.15 0.23,0.42 0.31,0.56 0.03,0.06 0.08,0.13 0.1,0.18 0.04,0.08 0.08,0.12 0.12,0.18 0.06,0.11 0.15,0.25 0.22,0.35 0.08,0.12 0.16,0.22 0.24,0.34l0.18 0.24c0.01,0.02 0.01,0.03 0.03,0.04 0.01,0.03 0.02,0.03 0.03,0.06l-0.11 0.06z"/>
   <path class="fil1" d="M8.4 12.93l0 -0.33c0.06,-0.04 0.17,-0.08 0.24,-0.11 0.33,-0.16 0.56,-0.31 0.86,-0.51 0.39,-0.28 0.6,-0.45 0.96,-0.77 0.12,-0.11 0.23,-0.23 0.35,-0.34 0.32,-0.32 0.83,-0.92 1.1,-1.31 0.15,-0.2 0.28,-0.39 0.42,-0.61 0.33,-0.51 0.47,-0.77 0.74,-1.31 0.13,-0.27 0.32,-0.73 0.42,-1 -0.46,0.36 -0.93,0.68 -1.43,1 -0.44,0.28 -0.89,0.56 -1.35,0.83 -0.27,0.18 -0.55,0.32 -0.83,0.5 -0.39,0.21 -0.77,0.43 -1.16,0.64 -0.08,0.04 -0.28,0.14 -0.34,0.18l0 2.79c-0.03,0.01 -0.01,0.01 -0.04,0.01 -0.05,0 -0.68,-0.34 -0.73,-0.37 -0.03,-0.02 -0.04,-0.03 -0.08,-0.05 -0.22,-0.13 -0.83,-0.6 -1,-0.75l-0.37 -0.33c0,0 0,-0.01 -0.01,-0.01l-0.07 -0.09c-0.05,-0.05 -0.05,-0.03 -0.06,-0.07 -0.1,0.03 -0.23,0.09 -0.33,0.13 -0.11,0.04 -0.23,0.08 -0.34,0.12 -0.73,0.25 -1.36,0.44 -2.15,0.59 -0.96,0.18 -2.51,0.3 -2.86,-0.53 -0.2,-0.5 -0.11,-1.06 0.08,-1.52 0.32,-0.77 0.99,-1.55 1.56,-2.09 0.04,-0.04 0.08,-0.08 0.12,-0.12l0.36 -0.32c0.09,-0.08 0.16,-0.14 0.25,-0.21 0.05,-0.04 0.21,-0.18 0.26,-0.2l0.1 0.25 0.11 0.27c0.03,0.06 0.15,0.31 0.15,0.37l-0.26 0.26c-0.14,0.13 -0.71,0.66 -0.8,0.77 -0.1,0.1 -0.15,0.15 -0.25,0.28 -0.21,0.27 -0.53,0.75 -0.34,1.11 0.3,0.59 1.46,0.37 2.08,0.21 0.08,-0.02 0.13,-0.02 0.21,-0.05 0.07,-0.02 0.13,-0.04 0.2,-0.06 0.15,-0.05 0.62,-0.21 0.75,-0.28l0.11 -0.06c-0.01,-0.03 -0.02,-0.03 -0.03,-0.06 -0.02,-0.01 -0.02,-0.02 -0.03,-0.04l-0.18 -0.24c-0.08,-0.12 -0.16,-0.22 -0.24,-0.34 -0.07,-0.1 -0.16,-0.24 -0.22,-0.35 -0.04,-0.06 -0.08,-0.1 -0.12,-0.18 -0.02,-0.05 -0.07,-0.12 -0.1,-0.18 -0.08,-0.14 -0.24,-0.41 -0.31,-0.56 -0.02,-0.06 -0.06,-0.12 -0.09,-0.19 -0.08,-0.15 -0.29,-0.64 -0.35,-0.79l-0.16 -0.42c-0.09,-0.24 -0.2,-0.62 -0.27,-0.88 -0.04,-0.15 -0.07,-0.31 -0.1,-0.47 -0.03,-0.16 -0.06,-0.32 -0.09,-0.49 -0.07,-0.49 -0.04,-1.11 0.03,-1.6 0.17,0 0.32,0 0.49,-0.02 0.44,-0.06 0.83,-0.15 1.25,-0.28 0.04,-0.01 0.07,-0.02 0.1,-0.03 0.03,-0.01 0.08,-0.02 0.1,-0.03 0.07,-0.03 0.12,-0.04 0.19,-0.07 0.34,-0.11 1.26,-0.52 1.58,-0.71 0.06,-0.04 0.11,-0.07 0.17,-0.1 0.41,-0.23 0.9,-0.57 1.27,-0.89l0.2 -0.18c0.03,-0.03 0.23,-0.24 0.26,-0.25l-0.01 -0.49c-0.04,0.05 -0.08,0.1 -0.12,0.16 -0.07,0.09 -0.32,0.34 -0.4,0.41 -0.58,0.51 -1.23,0.94 -1.93,1.28 -0.49,0.24 -0.98,0.45 -1.54,0.62 -0.48,0.15 -1.08,0.28 -1.6,0.28 -0.08,0 -0.19,-0.02 -0.26,-0.01 -0.02,0.04 -0.07,0.4 -0.08,0.48 -0.13,1.01 0.05,2.01 0.34,2.97 0.02,0.09 0.12,0.36 0.13,0.43 -0.09,0.04 -0.69,0.55 -0.77,0.64l-0.24 0.22c-0.78,0.73 -2.22,2.47 -1.83,3.69 0.04,0.12 0.09,0.23 0.16,0.32l0.1 0.12c0.02,0.03 0.05,0.05 0.07,0.07 0.17,0.14 0.48,0.25 0.73,0.3 1.01,0.2 2.32,-0.04 3.29,-0.32 0.24,-0.07 0.47,-0.15 0.7,-0.24l0.66 -0.26 0.29 0.27c0.21,0.2 0.66,0.56 0.9,0.73 0.19,0.14 1.18,0.78 1.43,0.77z"/>
   <path class="fil1" d="M9.3 3.94c0.23,0.01 0.47,0.01 0.69,0.07 0.31,0.09 0.6,0.48 0.8,0.72 0.06,0.07 0.31,0.38 0.35,0.42 0.09,-0.04 0.13,-0.09 0.17,-0.19 0.07,-0.15 0.1,-0.15 0.2,-0.15 0.11,0 0.56,-0.01 0.59,0.11 0.01,0.13 -0.17,0.29 -0.27,0.32 -0.05,0.02 -0.22,0.01 -0.28,0.01 -0.08,0 -0.17,0.02 -0.21,0.09 0.03,0.06 0.26,0.12 0.32,0.2 -0.03,0.03 -0.37,0.3 -0.44,0.35 -0.18,0.14 -0.94,0.62 -1.19,0.78 -0.08,0.05 -0.17,0.1 -0.25,0.15 -0.01,-0.04 0.04,-0.05 -0.13,-0.04 -0.06,0 -0.12,0 -0.18,0.01 -0.17,0.02 -0.93,0.04 -1.09,0.04 -0.01,0.08 0,0.95 0,1.12 0,0.12 -0.01,0.24 -0.01,0.36l0.02 0.01c0.1,-0.01 1.38,-0.77 1.55,-0.88l0.57 -0.35c0.13,-0.08 0.24,-0.17 0.36,-0.24 0.16,-0.09 0.41,-0.25 0.56,-0.35 0.1,-0.07 0.64,-0.47 0.72,-0.5 0.05,-0.02 0.29,-0.21 0.35,-0.25 0.12,-0.09 0.24,-0.18 0.35,-0.26 0.23,-0.18 0.46,-0.36 0.67,-0.54 0.11,-0.1 0.21,-0.18 0.33,-0.28l0.17 -0.16c0.01,-0.12 0.01,-0.27 0.02,-0.39 0.01,-0.27 0,-0.82 -0.07,-1.06 -0.42,-0.05 -0.44,-0.01 -0.92,-0.1 -0.45,-0.09 -0.97,-0.24 -1.4,-0.41 -0.07,-0.03 -0.12,-0.05 -0.19,-0.07 -0.34,-0.14 -0.64,-0.29 -1.02,-0.47 -0.56,-0.31 -1.04,-0.61 -1.54,-1.03 -0.25,-0.2 -0.31,-0.29 -0.52,-0.49l0 3.43c0.13,0 0.86,0 0.92,0.02z"/>
   <path class="fil2" d="M4.79 7.68c0.09,0.01 0.16,0.03 0.25,0.03 0.02,-0.17 0.07,-0.29 0.16,-0.36 0.14,-0.11 0.21,-0.1 0.41,-0.12 0.16,-0.01 0.33,-0.02 0.49,-0.03 0.14,-0.02 0.36,-0.05 0.5,-0.04l0.15 0.73c-0.28,0.05 -1.5,0 -1.78,-0.1 -0.06,-0.02 -0.14,-0.06 -0.18,-0.11zm1.59 -1.02c-0.28,0.01 -0.62,-0.03 -0.91,-0.04 -0.15,0 -0.25,-0.03 -0.35,-0.11 -0.05,-0.05 -0.03,-0.11 -0.03,-0.19 0,-0.06 0.01,-0.16 0.02,-0.22 0.24,-0.05 1.14,0.27 1.27,0.56zm2 -2.52c0.31,-0.01 0.64,0.01 0.96,0.02 0.52,0.01 0.68,0 1.01,0.42 0.06,0.08 0.61,0.76 0.62,0.81 -0.09,0.08 -0.17,0.15 -0.26,0.22 -0.05,0.05 -0.21,0.19 -0.26,0.22 0.03,-0.07 0.36,-0.39 0.39,-0.46 -0.05,-0.06 -0.11,-0.08 -0.22,-0.08l-0.87 -0.03c-0.39,-0.02 -0.78,-0.04 -1.17,-0.05 -0.46,-0.01 -0.92,0.03 -1.37,0.04l-1.03 0.04c-0.13,0 -0.2,0 -0.26,0.08 0.02,0.06 0.38,0.42 0.43,0.51 -0.08,-0.07 -0.55,-0.46 -0.57,-0.5 0.04,-0.05 0.68,-0.87 0.75,-0.94 0.02,-0.02 0.03,-0.03 0.06,-0.06 0.02,-0.01 0.04,-0.03 0.06,-0.05 0.22,-0.19 0.44,-0.16 0.79,-0.17 0.3,-0.01 0.63,-0.03 0.94,-0.02zm0 2.69c0.16,0 0.92,-0.02 1.09,-0.04 0.06,-0.01 0.12,-0.01 0.18,-0.01 0.17,-0.01 0.12,0 0.13,0.04 0.08,-0.05 0.17,-0.1 0.25,-0.15 0.25,-0.16 1.01,-0.64 1.19,-0.78 0.07,-0.05 0.41,-0.32 0.44,-0.35 -0.06,-0.08 -0.29,-0.14 -0.32,-0.2 0.04,-0.07 0.13,-0.09 0.21,-0.09 0.06,0 0.23,0.01 0.28,-0.01 0.1,-0.03 0.28,-0.19 0.27,-0.32 -0.03,-0.12 -0.48,-0.11 -0.59,-0.11 -0.1,0 -0.13,0 -0.2,0.15 -0.04,0.1 -0.08,0.15 -0.17,0.19 -0.04,-0.04 -0.29,-0.35 -0.35,-0.42 -0.2,-0.24 -0.49,-0.63 -0.8,-0.72 -0.22,-0.06 -0.46,-0.06 -0.69,-0.07 -0.38,0 -2.05,-0.03 -2.42,0.04 -0.2,0.04 -0.28,0.1 -0.41,0.2 -0.16,0.12 -0.15,0.14 -0.23,0.23 -0.12,0.11 -0.57,0.7 -0.63,0.74 -0.08,-0.03 -0.12,-0.09 -0.16,-0.17 -0.03,-0.08 -0.07,-0.16 -0.15,-0.17 -0.12,0 -0.53,0.01 -0.6,0.06 -0.04,0.02 -0.06,0.05 -0.04,0.1 0,0.02 0.04,0.09 0.05,0.11 0.14,0.2 0.3,0.17 0.48,0.17 0.07,0 0.18,0.01 0.23,0.09 -0.03,0.04 -0.22,0.12 -0.32,0.18l-0.14 0.1c-0.06,0.04 -0.1,0.07 -0.14,0.11 -0.22,0.22 -0.27,0.39 -0.27,0.7 0,0.33 0,0.66 0,0.98 0,0.22 -0.03,0.79 0.03,0.94 0.14,0.01 0.54,0 0.73,0 0.04,0 0.08,0 0.11,0 0.01,-0.01 0,0 0.03,0l1.75 0.01c0.12,0 0.11,0.01 0.2,-0.05 0.07,-0.04 0.57,-0.34 0.58,-0.37 -0.2,-0.01 -0.91,-0.04 -0.99,-0.16l0.27 0 -0.28 -1c0.08,-0.02 0.51,0.03 0.69,0.03 0.24,0 0.47,0.02 0.71,0.02z"/>
   <path class="fil3" d="M8.38 0.49c0.21,0.2 0.27,0.29 0.52,0.49 0.5,0.42 0.98,0.72 1.54,1.03 0.13,0.06 0.4,0.2 0.51,0.25 0.19,0.09 0.3,0.13 0.51,0.22 0.07,0.02 0.12,0.04 0.19,0.07 0.43,0.17 0.95,0.32 1.4,0.41 0.48,0.09 0.5,0.05 0.92,0.1 0.07,0.24 0.08,0.79 0.07,1.06 -0.01,0.12 -0.03,0.27 -0.02,0.39 0.07,-0.05 0.08,-0.06 0.15,-0.13l0.99 -0.89c0.31,-0.3 1.06,-1.22 0.48,-1.6 -0.14,-0.09 -0.29,-0.12 -0.48,-0.14 -0.39,-0.02 -0.65,0.04 -1.01,0.1 -0.65,0.11 -1.12,0.24 -1.73,0.46 -0.28,0.11 -0.21,0.11 -0.4,0.05 -0.08,-0.03 -0.35,-0.12 -0.39,-0.15 0.03,-0.05 0.5,-0.2 0.58,-0.24 0.54,-0.2 1.28,-0.44 1.85,-0.56 0.55,-0.13 1.56,-0.3 2.14,-0.08 0.1,0.04 0.18,0.07 0.27,0.13 0.05,0.04 0.15,0.17 0.18,0.23 0.13,0.12 0.11,0.51 0.05,0.7 -0.31,1.03 -1.49,2.1 -2.28,2.8 -0.06,0.05 -0.46,0.38 -0.46,0.38l-0.08 0.37c0,0.03 0,0.02 0.01,0.03 0.08,-0.06 0.15,-0.12 0.22,-0.18 0.04,-0.03 0.07,-0.06 0.11,-0.09 0.04,-0.04 0.08,-0.07 0.12,-0.1l0.48 -0.41c0.2,-0.16 0.77,-0.72 0.91,-0.9 0.14,-0.16 0.28,-0.31 0.42,-0.49 0.22,-0.3 0.55,-0.77 0.68,-1.12 0.09,-0.23 0.19,-0.41 0.2,-0.72 0,-0.33 -0.13,-0.43 -0.3,-0.61 -0.29,-0.3 -0.97,-0.34 -1.48,-0.31 -0.85,0.04 -1.81,0.28 -2.61,0.55 -0.36,0.12 -0.64,0.23 -0.99,0.37 -0.07,0.03 -0.28,0.13 -0.33,0.12 -0.04,0 -0.28,-0.12 -0.31,-0.14 0.6,-0.31 1.83,-0.72 2.46,-0.89 0.85,-0.22 2.76,-0.61 3.48,0.13 0.14,0.14 0.27,0.3 0.32,0.51 0.2,0.75 -0.54,1.82 -0.96,2.34 -0.11,0.14 -0.47,0.57 -0.58,0.68 -0.04,0.04 -0.07,0.07 -0.11,0.11 -0.02,0.02 -0.08,0.08 -0.11,0.09 -0.03,0.08 -0.51,0.49 -0.59,0.56 -0.06,0.07 -0.13,0.12 -0.2,0.18l-0.63 0.52c-0.07,0.05 -0.14,0.13 -0.21,0.17 -0.07,0.06 -0.13,0.11 -0.2,0.17 -0.04,0.02 -0.07,0.05 -0.11,0.07 -0.05,0.03 -0.07,0.04 -0.09,0.09 -0.1,0.27 -0.28,0.7 -0.41,0.97 -0.27,0.54 -0.41,0.8 -0.74,1.31 -0.14,0.22 -0.27,0.41 -0.42,0.61 -0.27,0.39 -0.78,0.99 -1.1,1.31 -0.12,0.11 -0.23,0.23 -0.35,0.34 -0.36,0.32 -0.57,0.49 -0.96,0.77 -0.3,0.2 -0.53,0.35 -0.86,0.51 -0.07,0.03 -0.18,0.07 -0.24,0.11l0 0.33c0.09,-0.02 0.33,-0.14 0.41,-0.18 0.13,-0.07 0.27,-0.15 0.39,-0.21 0.13,-0.07 0.25,-0.16 0.37,-0.23 0.12,-0.09 0.23,-0.16 0.34,-0.25 1.27,-0.94 2.49,-2.43 3.22,-3.86 0.23,-0.45 0.38,-0.77 0.56,-1.22l0.16 -0.42c0.02,-0.04 0.27,-0.23 0.32,-0.27 0.12,-0.09 0.22,-0.18 0.33,-0.27 0.17,-0.14 0.81,-0.69 0.94,-0.83l0.44 -0.45c0.16,-0.15 0.55,-0.62 0.69,-0.79 0.08,-0.1 0.16,-0.22 0.24,-0.33 0.09,-0.12 0.16,-0.23 0.24,-0.36 0.03,-0.06 0.2,-0.37 0.2,-0.37 0.05,-0.14 0.12,-0.26 0.19,-0.49 0.05,-0.18 0.09,-0.38 0.08,-0.58 -0.02,-0.82 -0.69,-1.14 -1.41,-1.23 -0.44,-0.05 -0.81,0 -1.24,0.03 -0.03,0.02 -0.42,0.07 -0.51,0.08 -1.15,0.23 -2.28,0.64 -3.34,1.11 -0.09,0.03 -0.13,0.08 -0.22,0.03 -0.13,-0.07 -0.26,-0.13 -0.39,-0.2 -0.26,-0.15 -0.5,-0.3 -0.73,-0.45 -0.33,-0.22 -0.94,-0.71 -1.19,-1.04 -0.02,-0.03 -0.1,-0.12 -0.12,-0.14l0.01 0.48z"/>
   <path class="fil0" d="M6.02 10.92c0.01,0.04 0.01,0.02 0.06,0.07l0.07 0.09c0.01,0 0.01,0.01 0.01,0.01l0.37 0.33c0.17,0.15 0.78,0.62 1,0.75 0.04,0.02 0.05,0.03 0.08,0.05 0.05,0.03 0.68,0.37 0.73,0.37 0.03,0 0.01,0 0.04,-0.01l0 -2.79c-0.06,0.02 -0.23,0.12 -0.29,0.15 -0.47,0.26 -1.12,0.56 -1.61,0.78 -0.05,0.02 -0.09,0.05 -0.14,0.07 -0.1,0.04 -0.23,0.09 -0.32,0.13z"/>
   <path class="fil1" d="M5.76 10.72c0.02,-0.02 0,-0.04 -0.02,-0.06 -0.08,-0.07 -0.08,-0.13 -0.16,-0.11l-0.55 0.19c-0.42,0.16 -1.36,0.43 -1.77,0.5 -0.1,0.02 -0.21,0.05 -0.31,0.07 -0.11,0.01 -0.22,0.03 -0.33,0.04 -0.57,0.08 -1.45,0.12 -1.76,-0.39 -0.41,-0.67 0.43,-1.73 0.71,-2.08 0.23,-0.28 0.47,-0.53 0.72,-0.78 0.12,-0.13 0.25,-0.25 0.39,-0.37 0.15,-0.15 0.33,-0.32 0.5,-0.44l-0.05 -0.25c-0.04,-0.09 -0.92,0.74 -0.99,0.81 -0.64,0.61 -2.05,2.22 -1.54,3.22 0.18,0.37 0.57,0.51 1.1,0.54 1.15,0.07 3,-0.46 4.06,-0.89z"/>
   <path class="fil0" d="M8.58 5.21c-0.06,-0.02 -0.15,-0.01 -0.19,-0.01l-0.01 -0.04c-0.01,-0.07 0.01,-0.85 0,-1.02 -0.31,-0.01 -0.64,0.01 -0.94,0.02 -0.35,0.01 -0.57,-0.02 -0.79,0.17 -0.02,0.02 -0.04,0.04 -0.06,0.05 -0.03,0.03 -0.04,0.04 -0.06,0.06 -0.07,0.07 -0.71,0.89 -0.75,0.94 0.02,0.04 0.49,0.43 0.57,0.5 -0.05,-0.09 -0.41,-0.45 -0.43,-0.51 0.06,-0.08 0.13,-0.08 0.26,-0.08l1.03 -0.04c0.45,-0.01 0.91,-0.05 1.37,-0.04z"/>
   <path class="fil1" d="M8.58 5.21c0.39,0.01 0.78,0.03 1.17,0.05l0.87 0.03c0.11,0 0.17,0.02 0.22,0.08 -0.03,0.07 -0.36,0.39 -0.39,0.46 0.05,-0.03 0.21,-0.17 0.26,-0.22 0.09,-0.07 0.17,-0.14 0.26,-0.22 -0.01,-0.05 -0.56,-0.73 -0.62,-0.81 -0.33,-0.42 -0.49,-0.41 -1.01,-0.42 -0.32,-0.01 -0.65,-0.03 -0.96,-0.02 0.01,0.17 -0.01,0.95 0,1.02l0.01 0.04c0.04,0 0.13,-0.01 0.19,0.01z"/>
   <path class="fil1" d="M8.38 9.17l0 0.31c0.08,-0.04 0.2,-0.11 0.28,-0.15 0.09,-0.06 0.18,-0.1 0.28,-0.16l0.56 -0.3 1 -0.59c0.04,-0.02 0.01,-0.01 0.04,-0.01 0.02,-0.04 0.2,-0.14 0.25,-0.17 0.62,-0.37 1.19,-0.73 1.79,-1.14 0.23,-0.16 0.45,-0.31 0.67,-0.48 0.11,-0.08 0.22,-0.16 0.33,-0.25 0.05,-0.04 0.1,-0.08 0.16,-0.13 0.04,-0.03 0.12,-0.1 0.15,-0.13l0.07 -0.41c-0.05,0.06 -0.11,0.1 -0.16,0.15l-0.48 0.37c-0.22,0.17 -0.45,0.34 -0.67,0.49l-1.02 0.7c-0.11,0.07 -0.23,0.15 -0.34,0.23 -0.24,0.15 -0.48,0.29 -0.71,0.44 -0.29,0.18 -0.78,0.47 -1.09,0.64 -0.06,0.03 -0.12,0.07 -0.19,0.1 -0.06,0.04 -0.12,0.06 -0.19,0.09 -0.12,0.07 -0.24,0.14 -0.37,0.21 -0.07,0.03 -0.33,0.16 -0.36,0.19z"/>
   <path class="fil0" d="M4.79 7.68c0.04,0.05 0.12,0.09 0.18,0.11 0.28,0.1 1.5,0.15 1.78,0.1l-0.15 -0.73c-0.14,-0.01 -0.36,0.02 -0.5,0.04 -0.16,0.01 -0.33,0.02 -0.49,0.03 -0.2,0.02 -0.27,0.01 -0.41,0.12 -0.09,0.07 -0.14,0.19 -0.16,0.36 -0.09,0 -0.16,-0.02 -0.25,-0.03z"/>
   <path class="fil0" d="M5.58 10.55c0.08,-0.02 0.08,0.04 0.16,0.11 0.02,0.02 0.04,0.04 0.02,0.06l0.68 -0.28c0.29,-0.14 0.7,-0.32 0.98,-0.47 0.13,-0.06 0.9,-0.45 0.96,-0.49l0 -0.31c-0.35,0.18 -0.68,0.36 -1.02,0.55 -0.11,0.07 -0.23,0.12 -0.34,0.18 -0.48,0.25 -0.87,0.41 -1.35,0.61l-0.07 0.02c-0.02,0.01 0,0 -0.02,0.02z"/>
   <path class="fil0" d="M6.38 6.66c-0.13,-0.29 -1.03,-0.61 -1.27,-0.56 -0.01,0.06 -0.02,0.16 -0.02,0.22 0,0.08 -0.02,0.14 0.03,0.19 0.1,0.08 0.2,0.11 0.35,0.11 0.29,0.01 0.63,0.05 0.91,0.04z"/>
   <path class="fil4" d="M3.76 10.29c-0.62,0.16 -1.78,0.38 -2.08,-0.21 -0.19,-0.36 0.13,-0.84 0.34,-1.11 0.1,-0.13 0.15,-0.18 0.25,-0.28 0.09,-0.11 0.66,-0.64 0.8,-0.77l0.26 -0.26c0,-0.06 -0.12,-0.31 -0.15,-0.37l0 0 0 0c-0.17,0.12 -0.35,0.29 -0.5,0.44 -0.14,0.12 -0.27,0.24 -0.39,0.37 -0.25,0.25 -0.49,0.5 -0.72,0.78 -0.28,0.35 -1.12,1.41 -0.71,2.08 0.31,0.51 1.19,0.47 1.76,0.39 0.11,-0.01 0.22,-0.03 0.33,-0.04 0.1,-0.02 0.21,-0.05 0.31,-0.07 0.41,-0.07 1.35,-0.34 1.77,-0.5l0.55 -0.19c0.02,-0.02 0,-0.01 0.02,-0.02l0.07 -0.02c0.48,-0.2 0.87,-0.36 1.35,-0.61 0.11,-0.06 0.23,-0.11 0.34,-0.18 0.34,-0.19 0.67,-0.37 1.02,-0.55 0.03,-0.03 0.29,-0.16 0.36,-0.19 0.13,-0.07 0.25,-0.14 0.37,-0.21 0.07,-0.03 0.13,-0.05 0.19,-0.09 0.07,-0.03 0.13,-0.07 0.19,-0.1 0.31,-0.17 0.8,-0.46 1.09,-0.64 0.23,-0.15 0.47,-0.29 0.71,-0.44 0.11,-0.08 0.23,-0.16 0.34,-0.23l1.02 -0.7c0.22,-0.15 0.45,-0.32 0.67,-0.49l0.48 -0.37c0.05,-0.05 0.11,-0.09 0.16,-0.14l0 0c0,0 0,0 0,0 0,0 0,0 0,-0.01l0 0c0.05,-0.04 0.41,-0.32 0.46,-0.37 0.79,-0.7 1.97,-1.77 2.28,-2.8 0.06,-0.19 0.08,-0.58 -0.05,-0.7 -0.03,-0.06 -0.13,-0.19 -0.18,-0.23 -0.09,-0.06 -0.17,-0.09 -0.27,-0.13 -0.58,-0.22 -1.59,-0.05 -2.14,0.08 -0.57,0.12 -1.31,0.36 -1.85,0.56 -0.08,0.04 -0.55,0.19 -0.58,0.24 0.04,0.03 0.31,0.12 0.39,0.15 0.19,0.06 0.12,0.06 0.4,-0.05 0.61,-0.22 1.08,-0.35 1.73,-0.46 0.36,-0.06 0.62,-0.12 1.01,-0.1 0.19,0.02 0.34,0.05 0.48,0.14 0.58,0.38 -0.17,1.3 -0.48,1.6l-0.99 0.89c-0.07,0.07 -0.08,0.08 -0.15,0.13l-0.17 0.16c-0.12,0.1 -0.22,0.18 -0.33,0.28 -0.21,0.18 -0.44,0.36 -0.67,0.54 -0.11,0.08 -0.23,0.17 -0.35,0.26 -0.06,0.04 -0.3,0.23 -0.35,0.25 -0.08,0.03 -0.62,0.43 -0.72,0.5 -0.15,0.1 -0.4,0.26 -0.56,0.35 -0.12,0.07 -0.23,0.16 -0.36,0.24l-0.57 0.35c-0.17,0.11 -1.45,0.87 -1.55,0.88 -0.03,0.03 -0.17,0.09 -0.2,0.11 -0.98,0.51 -2,0.99 -3.03,1.38 -0.08,0.03 -0.16,0.07 -0.24,0.09 -0.13,0.07 -0.6,0.23 -0.75,0.28 -0.07,0.02 -0.13,0.04 -0.2,0.06 -0.08,0.03 -0.13,0.03 -0.21,0.05z"/>
   <path class="fil4" d="M1.7 11.61c-0.53,-0.03 -0.92,-0.17 -1.1,-0.54 -0.51,-1 0.9,-2.61 1.54,-3.22 0.06,-0.06 0.75,-0.71 0.94,-0.81l-0.01 -0.02 -0.1 -0.25c-0.05,0.02 -0.21,0.16 -0.26,0.2 -0.09,0.07 -0.16,0.13 -0.25,0.21l-0.36 0.32c-0.04,0.04 -0.08,0.08 -0.12,0.12 -0.57,0.54 -1.24,1.32 -1.56,2.09 -0.19,0.46 -0.28,1.02 -0.08,1.52 0.35,0.83 1.9,0.71 2.86,0.53 0.79,-0.15 1.42,-0.34 2.15,-0.59 0.11,-0.04 0.23,-0.08 0.34,-0.12 0.1,-0.04 0.23,-0.1 0.33,-0.13 0.09,-0.04 0.22,-0.09 0.32,-0.13 0.05,-0.02 0.09,-0.05 0.14,-0.07 0.49,-0.22 1.14,-0.52 1.61,-0.78 0.06,-0.03 0.23,-0.13 0.29,-0.15 0.06,-0.04 0.26,-0.14 0.34,-0.18 0.39,-0.21 0.77,-0.43 1.16,-0.64 0.28,-0.18 0.56,-0.32 0.83,-0.5 0.46,-0.27 0.91,-0.55 1.35,-0.83 0.5,-0.32 0.97,-0.64 1.43,-1 0.02,-0.03 0.04,-0.04 0.08,-0.06 0.04,-0.02 0.07,-0.05 0.11,-0.07 0.07,-0.06 0.13,-0.11 0.2,-0.17 0.07,-0.04 0.14,-0.12 0.21,-0.17l0.63 -0.52c0.07,-0.06 0.14,-0.11 0.2,-0.18 0.08,-0.07 0.56,-0.48 0.59,-0.56 0.03,-0.01 0.09,-0.07 0.11,-0.09 0.04,-0.04 0.07,-0.07 0.11,-0.11 0.11,-0.11 0.47,-0.54 0.58,-0.68 0.42,-0.52 1.16,-1.59 0.96,-2.34 -0.05,-0.21 -0.18,-0.37 -0.32,-0.51 -0.72,-0.74 -2.63,-0.35 -3.48,-0.13 -0.63,0.17 -1.86,0.58 -2.46,0.89 0.03,0.02 0.27,0.14 0.31,0.14 0.05,0.01 0.26,-0.09 0.33,-0.12 0.35,-0.14 0.63,-0.25 0.99,-0.37 0.8,-0.27 1.76,-0.51 2.61,-0.55 0.51,-0.03 1.19,0.01 1.48,0.31 0.17,0.18 0.3,0.28 0.3,0.61 -0.01,0.31 -0.11,0.49 -0.2,0.72 -0.13,0.35 -0.46,0.82 -0.68,1.12 -0.14,0.18 -0.28,0.33 -0.42,0.49 -0.14,0.18 -0.71,0.74 -0.91,0.9l-0.48 0.41c-0.04,0.03 -0.08,0.06 -0.12,0.1 -0.04,0.03 -0.07,0.06 -0.11,0.09 -0.07,0.06 -0.14,0.12 -0.22,0.18 -0.03,0.03 -0.11,0.1 -0.15,0.13 -0.06,0.05 -0.11,0.09 -0.16,0.13 -0.11,0.09 -0.22,0.17 -0.33,0.25 -0.22,0.17 -0.44,0.32 -0.67,0.48 -0.6,0.41 -1.17,0.77 -1.79,1.14 -0.05,0.03 -0.23,0.13 -0.25,0.17 -0.03,0 0,-0.01 -0.04,0.01l-1 0.59 -0.56 0.3c-0.1,0.06 -0.19,0.1 -0.28,0.16 -0.08,0.04 -0.2,0.11 -0.28,0.15 -0.06,0.04 -0.83,0.43 -0.96,0.49 -0.28,0.15 -0.69,0.33 -0.98,0.47l-0.68 0.28c-1.06,0.43 -2.91,0.96 -4.06,0.89z"/>
   <g>
    <path class="fil4" d="M2.52 2.74c-0.02,0.04 -0.07,0.4 -0.08,0.48 -0.13,1.01 0.05,2.01 0.34,2.97 0.02,0.09 0.12,0.36 0.13,0.43 -0.09,0.04 -0.69,0.55 -0.77,0.63l-0.24 0.23c-0.78,0.73 -2.22,2.46 -1.83,3.69 0.04,0.12 0.09,0.22 0.16,0.31l0.1 0.13c0.02,0.03 0.05,0.05 0.07,0.07 0.17,0.14 0.48,0.25 0.73,0.3 1.01,0.2 2.32,-0.04 3.29,-0.33 0.24,-0.07 0.47,-0.15 0.7,-0.23l0.66 -0.26 0.29 0.26c0.2,0.21 0.66,0.57 0.9,0.74 0.19,0.14 1.18,0.78 1.43,0.77 0.09,-0.02 0.33,-0.15 0.41,-0.19 0.13,-0.06 0.27,-0.14 0.39,-0.21 0.12,-0.07 0.25,-0.15 0.37,-0.23 0.12,-0.08 0.23,-0.15 0.34,-0.24 1.27,-0.94 2.49,-2.43 3.22,-3.86 0.23,-0.45 0.38,-0.77 0.56,-1.22l0.16 -0.42c0.02,-0.04 0.27,-0.23 0.32,-0.27 0.12,-0.1 0.22,-0.18 0.33,-0.27 0.17,-0.14 0.81,-0.69 0.94,-0.83l0.44 -0.45c0.16,-0.15 0.55,-0.62 0.69,-0.79 0.08,-0.1 0.16,-0.22 0.24,-0.33 0.09,-0.12 0.16,-0.24 0.24,-0.37 0.03,-0.05 0.2,-0.36 0.2,-0.37 0.04,-0.13 0.12,-0.26 0.19,-0.49 0.05,-0.17 0.09,-0.37 0.08,-0.57 -0.02,-0.82 -0.69,-1.14 -1.41,-1.23 -0.44,-0.05 -0.81,0 -1.24,0.03 -0.03,0.01 -0.42,0.07 -0.51,0.08 -1.15,0.23 -2.28,0.64 -3.34,1.1 -0.09,0.04 -0.13,0.09 -0.22,0.04 -0.13,-0.07 -0.26,-0.14 -0.39,-0.21 -0.26,-0.14 -0.5,-0.29 -0.73,-0.45 -0.33,-0.22 -0.94,-0.7 -1.19,-1.03 -0.02,-0.03 -0.1,-0.12 -0.12,-0.14l0 -0.01c-0.04,0.05 -0.08,0.1 -0.12,0.16 -0.07,0.09 -0.32,0.34 -0.4,0.41 -0.58,0.51 -1.23,0.94 -1.93,1.28 -0.49,0.24 -0.98,0.45 -1.54,0.62 -0.48,0.15 -1.08,0.28 -1.6,0.27 -0.08,0 -0.19,-0.01 -0.26,0zm-2.19 6.78c0.41,-0.82 1.1,-1.61 1.56,-2.04l0.24 -0.23 0 0c0.05,-0.05 0.27,-0.23 0.46,-0.39 0.14,-0.12 0.28,-0.23 0.32,-0.25 -0.01,-0.05 -0.06,-0.19 -0.1,-0.3 -0.01,-0.05 -0.03,-0.09 -0.04,-0.12l0 0 0 0c-0.14,-0.48 -0.26,-0.97 -0.32,-1.46 -0.07,-0.5 -0.08,-1 -0.01,-1.51 0.01,-0.05 0.03,-0.21 0.05,-0.33 0.01,-0.07 0.02,-0.14 0.03,-0.15 0,0 0,0 0,0 0.04,-0.01 0.1,-0.01 0.16,0 0.04,0 0.07,0 0.1,0 0.23,0 0.49,-0.03 0.74,-0.07 0.3,-0.05 0.6,-0.13 0.86,-0.21 0.28,-0.08 0.54,-0.18 0.8,-0.28 0.25,-0.1 0.49,-0.21 0.74,-0.33 0.35,-0.17 0.7,-0.37 1.02,-0.59 0.32,-0.21 0.62,-0.44 0.91,-0.69 0.04,-0.04 0.14,-0.13 0.22,-0.23 0.08,-0.07 0.14,-0.15 0.17,-0.19 0.02,-0.02 0.04,-0.04 0.05,-0.06 0.03,-0.03 0.05,-0.06 0.07,-0.09l0 0c0,0 0,0 0,0 0.01,0 0.01,0 0.01,0l0 0.01c0.01,0.01 0.05,0.05 0.08,0.09 0.02,0.02 0.04,0.04 0.05,0.05 0.1,0.14 0.28,0.32 0.48,0.49 0.24,0.21 0.52,0.42 0.7,0.54 0.12,0.08 0.24,0.16 0.36,0.23 0.12,0.08 0.24,0.15 0.37,0.22 0.09,0.05 0.18,0.1 0.27,0.14 0.04,0.02 0.08,0.05 0.12,0.07 0.07,0.03 0.11,0.01 0.17,-0.01 0.01,-0.01 0.03,-0.02 0.04,-0.03 0.54,-0.23 1.08,-0.45 1.64,-0.64 0.56,-0.19 1.13,-0.35 1.71,-0.46 0.03,-0.01 0.11,-0.02 0.19,-0.03 0.14,-0.02 0.3,-0.04 0.32,-0.05 0,0 0,0 0,0 0.07,-0.01 0.14,-0.02 0.21,-0.02 0.35,-0.03 0.66,-0.06 1.03,-0.01 0.4,0.05 0.78,0.17 1.04,0.4 0.22,0.19 0.37,0.46 0.38,0.83 0,0.1 -0.01,0.2 -0.02,0.3 -0.02,0.09 -0.04,0.19 -0.07,0.28 -0.04,0.13 -0.08,0.23 -0.12,0.32 -0.02,0.06 -0.05,0.11 -0.06,0.16l0 0c0,0 0,0.01 0,0.01 -0.01,0 -0.06,0.09 -0.11,0.19 -0.04,0.08 -0.08,0.15 -0.1,0.18 -0.04,0.06 -0.08,0.12 -0.11,0.18 -0.04,0.06 -0.08,0.12 -0.12,0.18 -0.04,0.06 -0.08,0.11 -0.13,0.17 -0.04,0.06 -0.08,0.11 -0.12,0.16 -0.08,0.1 -0.25,0.31 -0.41,0.49 -0.11,0.13 -0.21,0.24 -0.28,0.3l-0.44 0.45 0 0c-0.05,0.06 -0.19,0.18 -0.34,0.32 -0.23,0.2 -0.5,0.43 -0.6,0.52 -0.09,0.07 -0.18,0.14 -0.27,0.22l-0.05 0.04c-0.01,0.01 -0.03,0.02 -0.06,0.04 -0.09,0.07 -0.25,0.2 -0.27,0.23l-0.16 0.42c0,0 0,0 0,0 -0.09,0.23 -0.17,0.42 -0.26,0.61 -0.09,0.19 -0.18,0.39 -0.3,0.61 -0.37,0.72 -0.87,1.46 -1.43,2.14 -0.55,0.66 -1.16,1.26 -1.79,1.72 -0.06,0.05 -0.11,0.09 -0.17,0.13 -0.05,0.04 -0.11,0.07 -0.17,0.12 -0.06,0.03 -0.12,0.07 -0.18,0.11 -0.06,0.04 -0.13,0.08 -0.19,0.12 -0.03,0.01 -0.06,0.03 -0.1,0.05 -0.09,0.06 -0.19,0.11 -0.28,0.16 -0.01,0 -0.02,0 -0.03,0.01 -0.1,0.05 -0.31,0.15 -0.39,0.17l0 0c0,0 0,0 0,0 -0.09,0 -0.29,-0.08 -0.51,-0.2 -0.37,-0.2 -0.8,-0.48 -0.92,-0.57 -0.13,-0.09 -0.33,-0.24 -0.51,-0.39 -0.16,-0.13 -0.3,-0.25 -0.39,-0.34l-0.29 -0.27 -0.66 0.26c0,0 0,0 0,0 -0.11,0.05 -0.23,0.09 -0.35,0.13 -0.12,0.04 -0.24,0.07 -0.35,0.11 -0.54,0.16 -1.18,0.3 -1.82,0.36 -0.51,0.05 -1.02,0.05 -1.47,-0.04 -0.13,-0.02 -0.28,-0.07 -0.42,-0.12 -0.12,-0.05 -0.23,-0.11 -0.31,-0.17l0 0c-0.01,-0.02 -0.03,-0.03 -0.04,-0.04 -0.01,-0.01 -0.02,-0.02 -0.03,-0.04l-0.11 -0.12c0,0 0,0 0,0 -0.03,-0.05 -0.06,-0.1 -0.08,-0.15 -0.03,-0.05 -0.05,-0.11 -0.07,-0.17 -0.16,-0.5 -0.02,-1.08 0.26,-1.65z"/>
   </g>
  </g>
 </g>
</svg>
