<svg width="44" height="9" viewBox="0 0 44 9" fill="none" xmlns="http://www.w3.org/2000/svg">
<path d="M44 5.9448C43.9236 6.0785 42.3334 3.1306 42.2932 5.61871C41.7443 2.7132 39.6977 4.32412 38.2743 4.34042C37.3576 4.35346 36.4871 3.78606 35.5583 3.9915C35.504 4.43825 35.6286 4.77413 35.894 4.91109C36.3866 5.16544 37.2892 4.56217 37.5667 5.28936L30.6227 4.95022C23.4073 5.72306 15.9969 5.01544 8.72119 5.94807C8.41762 5.9872 8.00347 6.14047 7.6999 6.26438C7.36215 6.40134 7.11286 5.93828 7.21338 6.92309L14.1373 6.58069L16.0552 6.91984L4.28822 7.8916C2.18532 9.71773 0.880563 6.60679 0 3.88389C0.128667 1.38926 3.92635 0.541404 5.10043 0.404444C14.3865 -0.66515 24.4889 0.812067 33.8554 0.0620475C37.2752 1.05338 42.5384 -0.697763 43.998 5.9448H44Z" fill="#EAA924"/>
</svg>
